<svg width="131" height="24" viewBox="0 0 131 24" fill="none" xmlns="http://www.w3.org/2000/svg">
<g clip-path="url(#clip0_215_4143)">
<path d="M46.9256 14.419H46.8835L40.699 3.8252H39.467V19.1434H40.678V6.22063H40.699L46.45 15.9284H47.3362L53.0661 6.22063H53.0872V19.1434H54.3209V3.8252H53.0872L46.9256 14.419Z" fill="#2D55EA"/>
<path d="M62.32 8.57206C59.4225 8.57206 57.2394 10.7941 57.2394 13.9005C57.2394 17.0069 59.3804 19.2499 62.4077 19.2499C64.375 19.2499 65.7368 18.4725 66.6231 17.287L65.8018 16.5971C65.0665 17.5462 63.9415 18.1713 62.4288 18.1713C60.1368 18.1713 58.5152 16.5533 58.4064 14.1579H67.0109C67.032 14.0931 67.032 13.8777 67.032 13.6396C67.032 10.7276 65.1296 8.57031 62.3182 8.57031L62.32 8.57206ZM58.4503 13.2106C58.7311 11.0533 60.3105 9.6297 62.32 9.6297C64.3294 9.6297 65.6719 11.0743 65.8878 13.2106H58.4503Z" fill="#2D55EA"/>
<path d="M78.104 10.8362H78.0829C77.2616 9.41257 75.7471 8.57031 73.9974 8.57031C70.9929 8.57031 68.9379 10.8362 68.9379 13.7044C68.9379 16.8755 71.186 18.9032 74.0413 18.9032C75.9226 18.9032 77.3493 17.9752 78.1057 16.5726H78.1268V18.8157C78.1268 20.8872 76.872 22.4404 74.2343 22.4404C72.7215 22.4404 71.5756 22.0516 70.2786 21.2759L69.9768 22.3335C71.2948 23.132 72.7005 23.498 74.2799 23.498C77.6951 23.498 79.2535 21.4913 79.2535 18.6231V8.67888H78.1075V10.8362H78.104ZM74.1483 17.8263C71.9002 17.8263 70.126 16.2084 70.126 13.6851C70.126 11.4193 71.7265 9.6297 74.1483 9.6297C76.4192 9.6297 78.1478 11.2687 78.1478 13.6851C78.1478 16.1016 76.5912 17.8263 74.1483 17.8263Z" fill="#2D55EA"/>
<path d="M91.0117 11.0535H90.9907C90.2115 9.50032 88.6776 8.57227 86.9034 8.57227C83.8761 8.57227 81.7368 10.9449 81.7368 13.9865C81.7368 17.0281 84.0288 19.2501 86.9034 19.2501C88.8058 19.2501 90.2553 18.2573 91.0117 16.7689L91.0556 16.7899V19.1416H92.1577V8.67908H91.0117V11.0517V11.0535ZM87.0333 18.1733C84.5693 18.1733 82.9249 16.3399 82.9249 14.0093C82.9249 11.3564 84.7623 9.6299 87.0543 9.6299C89.3463 9.6299 91.0539 11.5718 91.0539 14.0093C91.0539 16.4467 89.2375 18.1733 87.0315 18.1733H87.0333Z" fill="#2D55EA"/>
<path d="M97.1504 12.9519H100.783C103.896 12.9519 106.059 11.5493 106.059 8.35711C106.059 5.76906 104.632 3.82715 101.15 3.82715H95.9185V19.1436H97.1504V12.9519ZM97.1504 4.94782H101.106C103.312 4.94782 104.781 6.09125 104.781 8.35711C104.781 10.32 103.635 11.8084 100.673 11.8084H97.1487V4.94782H97.1504Z" fill="#FF914D"/>
<path d="M113.108 19.2501C116.113 19.2501 118.449 17.0718 118.449 13.9217C118.449 10.7716 116.114 8.57227 113.108 8.57227C109.909 8.57227 107.768 10.9677 107.768 13.9217C107.768 16.8757 109.909 19.2501 113.108 19.2501ZM113.108 9.62815C115.421 9.62815 117.282 11.3547 117.282 13.9217C117.282 16.4887 115.444 18.1715 113.108 18.1715C110.6 18.1715 108.935 16.2524 108.935 13.9217C108.935 11.5911 110.6 9.62815 113.108 9.62815Z" fill="#FF914D"/>
<path d="M127.606 14.7745H123.619C122.376 14.7745 121.365 13.6888 121.365 12.3545C121.365 11.0202 122.376 9.93457 123.619 9.93457H130.43V8.79639H123.619C121.746 8.79639 120.225 10.3933 120.225 12.3545C120.225 14.3157 121.748 15.9126 123.619 15.9126H127.606C128.848 15.9126 129.859 16.9983 129.859 18.3326C129.859 19.6669 128.848 20.7525 127.606 20.7525H95.9203V21.8907H127.606C129.478 21.8907 131 20.2938 131 18.3326C131 16.3714 129.477 14.7745 127.606 14.7745Z" fill="#FF914D"/>
<path d="M18.1918 22.0659H12.4023C12.0155 22.0659 11.702 22.3787 11.702 22.7646V22.7663C11.702 23.1522 12.0155 23.465 12.4023 23.465H18.1918C18.5786 23.465 18.8921 23.1522 18.8921 22.7663V22.7646C18.8921 22.3787 18.5786 22.0659 18.1918 22.0659Z" fill="#2D55EA"/>
<path d="M27.2316 0.5H5.23853C4.80154 0.5 4.4488 0.85196 4.4488 1.28797C4.4488 1.72398 4.80154 2.07594 5.23853 2.07594H27.2298C28.2143 2.07594 29.0146 2.87442 29.0146 3.85676V17.7215C29.0146 18.7039 28.2143 19.5024 27.2298 19.5024H3.36424C2.37971 19.5024 1.57946 18.7039 1.57946 17.7215V6.07358C1.57946 6.07358 1.57946 6.07008 1.57946 6.06833V4.68325L5.80362 8.71416L5.81239 8.70716L7.05841 9.89962C7.61297 10.4302 8.48167 10.467 9.07836 9.98367L13.2955 6.56388V16.7917C13.2955 17.6322 13.9817 18.3151 14.8223 18.3151H15.8946C16.737 18.3151 17.4214 17.6322 17.4214 16.7917V14.8043H17.4179V11.0658H17.4214V6.56388L21.2524 9.67023L18.176 11.9308V14.0338L22.4353 10.903C22.8196 10.621 23.0442 10.1868 23.0565 9.71226C23.0671 9.23772 22.8617 8.79471 22.4932 8.49353L15.7244 3.0075V16.6236H14.9925V3.0075L8.12542 8.57583L6.9847 7.48317L6.98821 7.47967L4.36456 4.97568L4.31718 4.9319L1.53383 2.27556C1.49522 2.16349 1.43028 2.06368 1.3478 1.98139C1.25654 1.89033 1.14423 1.82204 1.01787 1.78352C0.945918 1.7625 0.8687 1.75025 0.789728 1.75025C0.352745 1.75025 0 2.10221 0 2.53822V3.8445C0 3.8445 0 3.8515 0 3.85501V17.7215C0 19.5724 1.50926 21.0783 3.36424 21.0783H27.2316C29.0865 21.0783 30.5958 19.5724 30.5958 17.7215V3.85676C30.5958 2.0059 29.0865 0.5 27.2316 0.5Z" fill="#FF914D"/>
</g>
<defs>
<clipPath id="clip0_215_4143">
<rect width="131" height="23" fill="white" transform="translate(0 0.5)"/>
</clipPath>
</defs>
</svg>
